# AST/ASF file generated using VICON BodyLanguage
# -----------------------------------------------
:version 1.10
:name VICON
:units
  mass 1.0
  length 0.45
  angle deg
:documentation
   .ast/.asf automatically generated from VICON data using
   VICON BodyBuilder and BodyLanguage model FoxedUp or BRILLIANT.MOD
:root
   order TX TY TZ RX RY RZ
   axis XYZ
   position 0 0 0  
   orientation 0 0 0 
:bonedata
  begin
     id 1 
     name lhipjoint
     direction 0.662698 -0.695252 0.27831 
     length 2.53073 
     axis 0 0 0  XYZ
  end
  begin
     id 2 
     name lfemur
     direction 0.34202 -0.939693 0  
     length 7.16147  
     axis 0 0 20  XYZ
    dof rx ry rz
    limits (-160.0 20.0)
           (-70.0 70.0)
           (-60.0 70.0)
  end
  begin
     id 3 
     name ltibia
     direction 0.34202 -0.939693 0   
     length 7.63967   
     axis 0 0 20   XYZ
    dof rx
    limits (-10.0 170.0)
  end
  begin
     id 4 
     name lfoot
     direction 0.0938457 -0.257721 0.961651   
     length 1.89793   
     axis -90 7.62852e-016 20   XYZ
    dof rx rz
    limits (-45.0 90.0)
           (-70.0 20.0)
  end
  begin
     id 5 
     name ltoes
     direction -0.00116841 -0.0030592 0.999995   
     length 0.955649   
     axis -90 7.62852e-016 20   XYZ
    dof rx
    limits (-90.0 20.0)
  end
  begin
     id 6 
     name rhipjoint
     direction -0.649445 -0.705948 0.282592   
     length 2.49238  
     axis 0 0 0  XYZ 
  end
  begin
     id 7 
     name rfemur
     direction -0.34202 -0.939693 0   
     length 6.90728   
     axis 0 0 -20   XYZ
    dof rx ry rz
    limits (-160.0 20.0)
           (-70.0 70.0)
           (-70.0 60.0)
  end
  begin
     id 8 
     name rtibia
     direction -0.34202 -0.939693 0   
     length 7.72868   
     axis 0 0 -20   XYZ
    dof rx
    limits (-10.0 170.0)
 end
 begin
     id 9 
     name rfoot
     direction -0.0920068 -0.252865 0.963117   
     length 1.97476  
     axis -90 -7.62852e-016 -20   XYZ
    dof rx rz
    limits (-45.0 90.0)
           (-20.0 70.0)
  end
  begin
     id 10 
     name rtoes
     direction 0.000391322 0.00230649 0.999997   
     length 0.992641   
     axis -90 -7.62852e-016 -20   XYZ
    dof rx
    limits (-90.0 20.0)
  end
  begin
     id 11 
     name lowerback
     direction -0.00875327 0.998321 -0.0572635   
     length 2.20024   
     axis 0 0 0   XYZ
    dof rx ry rz
    limits (-20.0 45.0)
           (-30.0 30.0)
           (-30.0 30.0)
  end
  begin
     id 12 
     name upperback
     direction 0.00753931 0.999972 -0.000360425   
     length 2.20538   
     axis 0 0 0   XYZ
    dof rx ry rz
    limits (-20.0 45.0)
           (-30.0 30.0)
           (-30.0 30.0)
  end
  begin
     id 13 
     name thorax
     direction 0.0117767 0.999601 0.0256663   
     length 2.21508   
     axis 0 0 0   XYZ
    dof rx ry rz
    limits (-20.0 45.0)
           (-30.0 30.0)
           (-30.0 30.0)
  end
  begin
     id 14 
     name lowerneck
     direction 0.060228 0.994909 0.0807986   
     length 1.7607   
     axis 0 0 0   XYZ
    dof rx ry rz
    limits (-20.0 45.0)
           (-30.0 30.0)
           (-30.0 30.0)
  end
  begin
     id 15 
     name upperneck
     direction -0.0563647 0.959594 -0.275685   
     length 1.75612   
     axis 0 0 0   XYZ
    dof rx ry rz
    limits (-20.0 45.0)
           (-30.0 30.0)
           (-30.0 30.0)
  end
  begin
     id 16
     name head
     direction -0.0161544 0.99458 -0.102714  
     length 1.79288  
     axis 0 0 0   XYZ
    dof rx ry rz
    limits (-20.0 45.0)
           (-30.0 30.0)
           (-30.0 30.0)
  end
  begin
     id 17 
     name lclavicle
     direction 0.93913 0.332189 -0.087669  
     length 3.52087  
     axis 0 0 0   XYZ
    dof ry rz
    limits (-20.0 10.0)
           (0.0 20.0)
  end
  begin
     id 18 
     name lhumerus
     direction 1 -4.48974e-011 -2.70836e-027   
     length 5.35289   
     axis -180 -30 -90   XYZ
    dof rx ry rz
    limits (-60.0 90.0)
           (-90.0 90.0)
           (-90.0 90.0)
  end
  begin
     id 19
     name lradius
     direction 1 -4.48961e-011 -9.76021e-027   
     length 3.27727   
     axis -180 -30 -90   XYZ
    dof rx
    limits (-10.0 170.0)
  end
  begin
     id 20
     name lwrist
     direction 1 -4.49103e-011 -2.23668e-026   
     length 1.63864   
     axis 1.44924e-014 90 90   XYZ
    dof ry
    limits (-180.0 0.0)
 end
  begin
     id 21 
     name lhand
     direction 1 3.0697e-005 0.000161777   
     length 0.54443   
     axis 2.85318e-014 90 90   XYZ
    dof rx rz
    limits (-90.0 90.0)
           (-45.0 45.0)
  end
  begin
     id 22 
     name lfingers
     direction 1 -4.49027e-011 -8.9447e-026   
     length 0.438912   
     axis 5.70628e-014 90 90   XYZ
    dof rx
    limits (0.0 90.0)
  end
  begin
     id 23
     name lthumb
     direction 0.707058 2.6516e-005 0.707156   
     length 0.630274   
     axis -90 45 -3.53137e-014   XYZ
    dof rx rz
    limits (-45.0 45.0)
           (-45.0 45.0)
  end
  begin
     id 24 
     name rclavicle
     direction -0.95274 0.284984 -0.105215   
     length 3.43401  
     axis 0 0 0   XYZ 
    dof ry rz
    limits (-10.0 20.0)
           (-20.0 0.0)
  end
  begin
     id 25 
     name rhumerus
     direction -0.999999 -0.000575019 -0.00106829  
     length 5.52077   
     axis -180 30 90   XYZ
    dof rx ry rz
    limits (-90.0 60.0)
           (-90.0 90.0)
           (-90.0 90.0)
  end
  begin
     id 26 
     name rradius
     direction -1 -4.4879e-011 -6.35415e-027   
     length 3.32364   
     axis -180 30 90   XYZ
    dof rx
    limits (-10.0 170.0)
  end
  begin
     id 27 
     name rwrist
     direction -1 -4.49048e-011 -9.98542e-027   
     length 1.66182   
     axis 6.32482e-015 -90 -90   XYZ
    dof ry
    limits (-180.0 0.0)
  end
  begin
     id 28
     name rhand
     direction -1 -4.48978e-011 -1.99771e-026   
     length 0.732235   
     axis 1.27479e-014 -90 -90   XYZ
    dof rx rz
    limits (-90.0 90.0)
           (-45.0 45.0)
  end
  begin
     id 29
     name rfingers
     direction -1 -4.49144e-011 -3.99245e-026   
     length 0.590347   
     axis 2.5496e-014 -90 -90   XYZ
    dof rx
    limits (0.0 90.0)
  end
  begin
     id 30
     name rthumb
     direction -0.707107 -6.35121e-011 0.707107   
     length 0.847624   
     axis -90 -45 -2.82974e-014   XYZ
    dof rx rz
    limits (-45.0 45.0)
           (-45.0 45.0)
  end
:hierarchy
  begin
    root lhipjoint rhipjoint lowerback
    lhipjoint lfemur
    lfemur ltibia
    ltibia lfoot
    lfoot ltoes
    rhipjoint rfemur
    rfemur rtibia
    rtibia rfoot
    rfoot rtoes
    lowerback upperback
    upperback thorax
    thorax lowerneck lclavicle rclavicle
    lowerneck upperneck
    upperneck head
    lclavicle lhumerus
    lhumerus lradius
    lradius lwrist
    lwrist lhand lthumb
    lhand lfingers
    rclavicle rhumerus
    rhumerus rradius
    rradius rwrist
    rwrist rhand rthumb
    rhand rfingers
  end

#!OML:ASF G:\Work\Work\Patient Classification 1\Elijah\terrain1\Elijah.ASF
:FULLY-SPECIFIED
:DEGREES
1
root 16.1514 23.2122 -8.43645 9.90767 -3.5725 -5.34912
lowerback 3.00272 1.52262 3.53164
upperback 0.359696 2.13581 -0.632194
thorax -1.16007 1.0505 -2.7106
lowerneck -15.9932 13.7996 10.4156
upperneck 32.607 22.6979 -13.4365
head 17.7427 9.055 -2.78051
rclavicle 1.92821e-014 -1.74931e-014
rhumerus -37.1531 -0.00883213 -87.3497
rradius 35.5901
rwrist -5.73745
rhand -10.5679 20.6449
rfingers 7.12502
rthumb 15.4367 -8.75869
lclavicle 1.92821e-014 -1.74931e-014
lhumerus -24.5247 32.172 72.4625
lradius 27.627
lwrist 0.772749
lhand -14.2195 22.6728
lfingers 7.12502
lthumb 11.9175 52.3136
rfemur 16.0574 -1.28375 26.818
rtibia 1.59028e-014
rfoot 22.0079 4.58223
rtoes -12.4146
lfemur -33.6478 0.448587 -19.1586
ltibia 42.4902
lfoot -21.4741 -1.76835
ltoes 0.852169
2
root 16.1501 23.2332 -8.34527 10.0314 -3.78745 -5.15389
lowerback 3.45871 1.69641 3.18926
upperback -0.184468 2.37058 -1.06229
thorax -1.95386 1.14562 -2.9983
lowerneck -14.8662 13.6782 11.4076
upperneck 32.6161 22.2742 -13.4075
head 17.5441 9.0798 -3.10093
rclavicle -2.22639e-014 4.77083e-015
rhumerus -38.0311 -0.653098 -87.6985
rradius 35.3801
rwrist -4.69936
rhand -10.6345 20.9612
rfingers 7.12502
rthumb 15.3726 -8.44727
lclavicle -2.22639e-014 4.77083e-015
lhumerus -24.9296 31.0755 71.8187
lradius 27.7563
lwrist 1.04125
lhand -13.8576 23.5063
lfingers 7.12502
lthumb 12.2664 53.1265
rfemur 12.0445 -1.09274 26.6226
rtibia 7.70887
rfoot 19.9431 4.79926
rtoes -10.5082
lfemur -33.137 0.701045 -19.4375
ltibia 41.9758
lfoot -21.6177 -1.81645
ltoes 1.46718
3
root 16.169 23.2611 -8.2105 9.87982 -4.94089 -5.13586
lowerback 4.335 1.98914 2.80027
upperback -0.633082 2.76818 -1.19207
thorax -2.89039 1.32357 -2.98195
lowerneck -15.1278 13.9566 11.414
upperneck 33.3454 22.6551 -12.8781
head 17.9693 9.24381 -2.7702
rclavicle -3.598e-014 1.27222e-014
rhumerus -38.6801 -0.375537 -87.8453
rradius 35.1414
rwrist -4.16645
rhand -10.7705 21.0576
rfingers 7.12502
rthumb 15.2416 -8.36091
lclavicle -3.598e-014 1.27222e-014
lhumerus -25.7258 30.2533 71.3921
lradius 28.0975
lwrist 1.79223
lhand -14.0096 24.078
lfingers 7.12502
lthumb 12.1198 53.707
rfemur 10.1791 0.0467487 26.2476
rtibia 12.0036
rfoot 18.6476 4.8117
rtoes -11.8475
lfemur -32.0373 1.50228 -19.7019
ltibia 41.533
lfoot -22.1367 -1.49822
ltoes 2.62508
4
root 16.169 23.2887 -8.125 10.0536 -4.58864 -5.11215
lowerback 4.14102 1.81289 2.77697
upperback -0.354515 2.52191 -1.2942
thorax -2.50773 1.21145 -3.04428
lowerneck -16.9794 14.3766 10.3945
upperneck 34.0366 23.3179 -12.0396
head 18.5829 9.32235 -1.95693
rclavicle -3.24019e-014 2.38542e-015
rhumerus -37.7755 -0.448139 -87.8904
rradius 34.6913
rwrist -3.68256
rhand -10.8343 21.3775
rfingers 7.12502
rthumb 15.1801 -8.04563
lclavicle -3.24019e-014 2.38542e-015
lhumerus -24.9094 29.8125 71.8575
lradius 28.4192
lwrist 2.5107
lhand -14.3437 25.0965
lfingers 7.12502
lthumb 11.7977 54.7442
rfemur 8.33108 -0.157858 26.2825
rtibia 15.3458
rfoot 18.3215 4.37907
rtoes -12.3899
lfemur -31.7601 1.68657 -19.8524
ltibia 41.0963
lfoot -21.9023 -1.63853
ltoes 2.02947
5
root 16.1712 23.3098 -8.0348 10.2358 -4.17348 -5.04022
lowerback 3.49081 1.44548 2.38077
upperback -0.282475 2.0036 -1.07303
thorax -2.12679 0.966681 -2.54175
lowerneck -16.6961 14.5475 9.79568
upperneck 34.0554 23.7842 -11.9933
head 18.4877 9.45398 -1.75082
rclavicle -7.15625e-015 -7.95139e-016
rhumerus -37.6326 0.358178 -87.7929
rradius 34.4958
rwrist -3.11012
rhand -11.0787 21.9294
rfingers 7.12502
rthumb 14.9447 -7.51144
lclavicle -7.15625e-015 -7.95139e-016
lhumerus -25.1743 30.4602 71.8274
lradius 28.6346
lwrist 2.69816
lhand -14.3045 24.9185
lfingers 7.12502
lthumb 11.8355 54.564
rfemur 6.69054 -0.614907 26.2437
rtibia 18.2685
rfoot 18.1473 4.35843
rtoes -14.0877
lfemur -31.499 1.82496 -20.0927
ltibia 40.6326
lfoot -21.7115 -1.30201
ltoes -1.18841
6
root 16.1747 23.3294 -7.93588 10.2162 -4.06212 -4.83687
lowerback 4.49041 0.337808 0.0465095
upperback -2.00785 0.473746 0.451051
thorax -4.59669 0.240873 0.40023
lowerneck -10.8058 14.9859 10.8686
upperneck 32.8187 25.267 -14.4364
head 17.3892 10.3625 -3.01248
rclavicle 2.5842e-015 -2.22639e-014
rhumerus -40.9085 5.16019 -87.6878
rradius 34.8414
rwrist -3.44408
rhand -11.1559 22.0701
rfingers 7.12502
rthumb 14.8703 -7.37625
lclavicle 2.5842e-015 -2.22639e-014
lhumerus -31.039 32.7741 69.4895
lradius 29.6153
lwrist 3.06484
lhand -14.3458 24.9554
lfingers 7.12502
lthumb 11.7956 54.6032
rfemur 5.32336 -0.793716 26.0052
rtibia 21.1813
rfoot 17.7939 4.30443
rtoes -15.7232
lfemur -30.8545 1.92677 -20.4314
ltibia 40.1044
lfoot -21.8126 -0.850702
ltoes -3.52066
7
root 16.1801 23.3551 -7.82745 9.90927 -4.26597 -4.55081
lowerback 4.39776 1.08348 1.07075
upperback -0.927976 1.47301 -0.982262
thorax -3.36866 0.701766 -1.71858
lowerneck -15.3937 14.815 10.3289
upperneck 34.2986 24.3834 -12.4114
head 18.6019 9.76996 -1.95126
rclavicle -5.96354e-016 2.38542e-015
rhumerus -38.9115 1.32032 -87.88
rradius 34.4883
rwrist -3.06826
rhand -10.4738 21.3165
rfingers 7.12502
rthumb 15.5273 -8.08008
lclavicle -5.96354e-016 2.38542e-015
lhumerus -26.9015 30.3438 70.8993
lradius 28.9001
lwrist 2.94919
lhand -14.6624 25.1937
lfingers 7.12502
lthumb 11.4904 54.8588
rfemur 4.2695 -0.751773 25.6433
rtibia 24.0485
rfoot 18.1688 2.86058
rtoes -15.9138
lfemur -29.7466 2.05288 -20.8163
ltibia 39.51
lfoot -21.8602 -0.547656
ltoes -3.49057
